<svg width="20" height="20" viewBox="0 0 20 20" fill="none" xmlns="http://www.w3.org/2000/svg">
<path d="M8.39667 9.16699C8.89667 9.16699 9.30167 9.54199 9.2925 10.0003C9.2925 10.4587 8.8975 10.8337 8.39667 10.8337C7.905 10.8337 7.5 10.4587 7.5 10.0003C7.5 9.54199 7.89583 9.16699 8.39667 9.16699ZM11.6033 9.16699C12.1042 9.16699 12.5 9.54199 12.5 10.0003C12.5 10.4587 12.1042 10.8337 11.6033 10.8337C11.1117 10.8337 10.7075 10.4587 10.7075 10.0003C10.7075 9.54199 11.1025 9.16699 11.6033 9.16699ZM15.7425 1.66699C16.7117 1.66699 17.5 2.47199 17.5 3.46949V19.167L15.6575 17.5045L14.62 16.5245L13.5225 15.4828L13.9775 17.102H4.2575C3.28833 17.102 2.5 16.297 2.5 15.2995V3.46949C2.5 2.47199 3.28833 1.66699 4.2575 1.66699H15.7417H15.7425ZM12.4342 13.0945C14.3283 13.0337 15.0575 11.7645 15.0575 11.7645C15.0575 8.94699 13.8225 6.66283 13.8225 6.66283C12.5892 5.71866 11.4142 5.74449 11.4142 5.74449L11.2942 5.88449C12.7517 6.33949 13.4283 6.99616 13.4283 6.99616C12.6326 6.54782 11.7555 6.26227 10.8483 6.15616C10.2729 6.09116 9.69161 6.09676 9.1175 6.17283C9.06583 6.17283 9.0225 6.18199 8.97167 6.19033C8.67167 6.21699 7.9425 6.33033 7.02583 6.74199C6.70917 6.89033 6.52 6.99616 6.52 6.99616C6.52 6.99616 7.23167 6.30449 8.77417 5.84949L8.68833 5.74449C8.68833 5.74449 7.51417 5.71866 6.28 6.66366C6.28 6.66366 5.04583 8.94699 5.04583 11.7645C5.04583 11.7645 5.76583 13.0328 7.66 13.0945C7.66 13.0945 7.97667 12.7012 8.235 12.3687C7.14583 12.0353 6.735 11.3353 6.735 11.3353C6.735 11.3353 6.82 11.397 6.97417 11.4845C6.9825 11.4928 6.99083 11.502 7.00833 11.5103C7.03417 11.5287 7.06 11.537 7.08583 11.5545C7.3 11.677 7.51417 11.7728 7.71083 11.852C8.0625 11.992 8.4825 12.132 8.97167 12.2287C9.70443 12.3723 10.4578 12.3751 11.1917 12.237C11.6191 12.1607 12.0361 12.0346 12.4342 11.8612C12.7342 11.747 13.0683 11.5803 13.42 11.3445C13.42 11.3445 12.9917 12.062 11.8683 12.3862C12.1258 12.7187 12.435 13.0945 12.435 13.0945H12.4342Z" fill="white"/>
</svg>
