<svg width="20" height="20" viewBox="0 0 20 20" fill="none" xmlns="http://www.w3.org/2000/svg">
<path d="M10.0013 1.66699C5.39714 1.66699 1.66797 5.39616 1.66797 10.0003C1.66702 11.7497 2.21698 13.455 3.23982 14.8742C4.26265 16.2934 5.70642 17.3546 7.3663 17.907C7.78297 17.9795 7.9388 17.7295 7.9388 17.5103C7.9388 17.3128 7.92797 16.657 7.92797 15.9587C5.83464 16.3445 5.29297 15.4487 5.1263 14.9795C5.03214 14.7395 4.6263 14.0003 4.27214 13.802C3.98047 13.6462 3.5638 13.2603 4.2613 13.2503C4.91797 13.2395 5.3863 13.8545 5.54297 14.1045C6.29297 15.3645 7.4913 15.0103 7.96964 14.792C8.04297 14.2503 8.2613 13.8862 8.5013 13.6778C6.64714 13.4695 4.70964 12.7503 4.70964 9.56283C4.70964 8.65616 5.03214 7.90699 5.5638 7.32283C5.48047 7.11449 5.1888 6.26033 5.64714 5.11449C5.64714 5.11449 6.34464 4.89616 7.9388 5.96949C8.61719 5.78121 9.31811 5.68645 10.0221 5.68783C10.7305 5.68783 11.4388 5.78116 12.1055 5.96866C13.6988 4.88533 14.3971 5.11533 14.3971 5.11533C14.8555 6.26116 14.5638 7.11533 14.4805 7.32366C15.0113 7.90699 15.3346 8.64616 15.3346 9.56283C15.3346 12.7612 13.3871 13.4695 11.533 13.6778C11.8346 13.9378 12.0955 14.4378 12.0955 15.2195C12.0955 16.3337 12.0846 17.2295 12.0846 17.5112C12.0846 17.7295 12.2413 17.9895 12.658 17.9062C14.3122 17.3477 15.7496 16.2845 16.7679 14.8663C17.7862 13.4481 18.3342 11.7463 18.3346 10.0003C18.3346 5.39616 14.6055 1.66699 10.0013 1.66699Z" fill="white"/>
</svg>
