<svg width="20" height="20" viewBox="0 0 20 20" fill="none" xmlns="http://www.w3.org/2000/svg">
<path d="M10.0013 1.66699C12.2655 1.66699 12.548 1.67533 13.4363 1.71699C14.3238 1.75866 14.928 1.89783 15.4596 2.10449C16.0096 2.31616 16.473 2.60283 16.9363 3.06533C17.36 3.48191 17.6879 3.98582 17.8971 4.54199C18.103 5.07283 18.243 5.67783 18.2846 6.56533C18.3238 7.45366 18.3346 7.73616 18.3346 10.0003C18.3346 12.2645 18.3263 12.547 18.2846 13.4353C18.243 14.3228 18.103 14.927 17.8971 15.4587C17.6885 16.0151 17.3606 16.5192 16.9363 16.9353C16.5196 17.3589 16.0157 17.6868 15.4596 17.8962C14.9288 18.102 14.3238 18.242 13.4363 18.2837C12.548 18.3228 12.2655 18.3337 10.0013 18.3337C7.73714 18.3337 7.45464 18.3253 6.5663 18.2837C5.6788 18.242 5.07464 18.102 4.54297 17.8962C3.98657 17.6874 3.48257 17.3594 3.0663 16.9353C2.64247 16.5188 2.31458 16.0149 2.10547 15.4587C1.8988 14.9278 1.75964 14.3228 1.71797 13.4353C1.6788 12.547 1.66797 12.2645 1.66797 10.0003C1.66797 7.73616 1.6763 7.45366 1.71797 6.56533C1.75964 5.67699 1.8988 5.07366 2.10547 4.54199C2.314 3.98548 2.64197 3.48143 3.0663 3.06533C3.48269 2.64135 3.98666 2.31343 4.54297 2.10449C5.07464 1.89783 5.67797 1.75866 6.5663 1.71699C7.45464 1.67783 7.73714 1.66699 10.0013 1.66699ZM10.0013 5.83366C8.89623 5.83366 7.83643 6.27265 7.05502 7.05405C6.27362 7.83545 5.83464 8.89526 5.83464 10.0003C5.83464 11.1054 6.27362 12.1652 7.05502 12.9466C7.83643 13.728 8.89623 14.167 10.0013 14.167C11.1064 14.167 12.1662 13.728 12.9476 12.9466C13.729 12.1652 14.168 11.1054 14.168 10.0003C14.168 8.89526 13.729 7.83545 12.9476 7.05405C12.1662 6.27265 11.1064 5.83366 10.0013 5.83366ZM15.418 5.62533C15.418 5.34906 15.3082 5.08411 15.1129 4.88876C14.9175 4.69341 14.6526 4.58366 14.3763 4.58366C14.1 4.58366 13.8351 4.69341 13.6397 4.88876C13.4444 5.08411 13.3346 5.34906 13.3346 5.62533C13.3346 5.90159 13.4444 6.16654 13.6397 6.3619C13.8351 6.55725 14.1 6.66699 14.3763 6.66699C14.6526 6.66699 14.9175 6.55725 15.1129 6.3619C15.3082 6.16654 15.418 5.90159 15.418 5.62533ZM10.0013 7.50033C10.6643 7.50033 11.3002 7.76372 11.7691 8.23256C12.2379 8.7014 12.5013 9.33728 12.5013 10.0003C12.5013 10.6634 12.2379 11.2993 11.7691 11.7681C11.3002 12.2369 10.6643 12.5003 10.0013 12.5003C9.33826 12.5003 8.70238 12.2369 8.23354 11.7681C7.76469 11.2993 7.5013 10.6634 7.5013 10.0003C7.5013 9.33728 7.76469 8.7014 8.23354 8.23256C8.70238 7.76372 9.33826 7.50033 10.0013 7.50033Z" fill="white"/>
</svg>
