<svg width="20" height="20" viewBox="0 0 20 20" fill="none" xmlns="http://www.w3.org/2000/svg">
<path d="M10.0013 18.3337C5.3988 18.3337 1.66797 14.6028 1.66797 10.0003C1.66797 5.39783 5.3988 1.66699 10.0013 1.66699C14.6038 1.66699 18.3346 5.39783 18.3346 10.0003C18.3346 14.6028 14.6038 18.3337 10.0013 18.3337ZM7.40964 10.9753L7.42047 10.9695L8.14547 13.3612C8.2388 13.6203 8.36714 13.667 8.52297 13.6453C8.67964 13.6245 8.76214 13.5403 8.86464 13.442L9.85464 12.4853L11.9796 14.0587C12.368 14.2728 12.6471 14.162 12.7438 13.6987L14.1246 7.18033C14.2771 6.57366 14.0105 6.33033 13.5396 6.52366L5.4288 9.65699C4.87547 9.87866 4.8788 10.1887 5.3288 10.3262L7.40964 10.9762V10.9753Z" fill="white"/>
</svg>
