<svg width="20" height="20" viewBox="0 0 20 20" fill="none" xmlns="http://www.w3.org/2000/svg">
<path d="M18.4702 4.71376C17.834 4.99517 17.1593 5.17999 16.4685 5.26209C17.1967 4.82662 17.7416 4.14127 18.0019 3.33376C17.3185 3.74043 16.5694 4.02543 15.7885 4.17959C15.264 3.61841 14.5688 3.24623 13.811 3.12091C13.0532 2.9956 12.2752 3.12417 11.5979 3.48664C10.9207 3.84911 10.3822 4.42516 10.0661 5.12525C9.75008 5.82535 9.67417 6.61024 9.85021 7.35793C8.46447 7.28847 7.10882 6.92836 5.87128 6.30098C4.63374 5.6736 3.54198 4.79297 2.66688 3.71626C2.35712 4.2483 2.19434 4.85312 2.19521 5.46876C2.19521 6.67709 2.81021 7.74459 3.74521 8.36959C3.19188 8.35217 2.65074 8.20274 2.16688 7.93376V7.97709C2.16704 8.78184 2.44552 9.56177 2.95508 10.1846C3.46465 10.8075 4.17394 11.235 4.96271 11.3946C4.44905 11.5338 3.91046 11.5543 3.38771 11.4546C3.6101 12.1473 4.04355 12.7531 4.62737 13.1872C5.21119 13.6213 5.91615 13.8619 6.64354 13.8754C5.92061 14.4432 5.09286 14.8629 4.20761 15.1106C3.32236 15.3582 2.39698 15.429 1.48438 15.3188C3.07746 16.3433 4.93196 16.8872 6.82604 16.8854C13.2369 16.8854 16.7427 11.5746 16.7427 6.96876C16.7427 6.81876 16.7385 6.66709 16.7319 6.51876C17.4143 6.02557 18.0032 5.41461 18.471 4.71459L18.4702 4.71376Z" fill="white"/>
</svg>
